<?xml version="1.0" encoding="UTF-8"?>
<svg width="390" height="844" viewBox="0 0 390 844" fill="none" xmlns="http://www.w3.org/2000/svg" font-family="'Georgia', 'Times New Roman', serif">

  <!-- Background -->
  <rect width="390" height="844" fill="#0D0F14"/>
  <!-- Subtle stone texture overlay -->
  <rect width="390" height="844" fill="url(#stoneGrad)" opacity="0.4"/>

  <defs>
    <linearGradient id="stoneGrad" x1="0" y1="0" x2="390" y2="844" gradientUnits="userSpaceOnUse">
      <stop offset="0%" stop-color="#1A1D26"/>
      <stop offset="100%" stop-color="#0A0C10"/>
    </linearGradient>
    <linearGradient id="goldGrad" x1="0" y1="0" x2="0" y2="1">
      <stop offset="0%" stop-color="#F0C060"/>
      <stop offset="100%" stop-color="#C8860A"/>
    </linearGradient>
    <linearGradient id="tankGrad" x1="0" y1="0" x2="1" y2="0">
      <stop offset="0%" stop-color="#1A3A5C"/>
      <stop offset="100%" stop-color="#0D1F30"/>
    </linearGradient>
    <linearGradient id="healGrad" x1="0" y1="0" x2="1" y2="0">
      <stop offset="0%" stop-color="#1A3A28"/>
      <stop offset="100%" stop-color="#0D2018"/>
    </linearGradient>
    <linearGradient id="dpsGrad" x1="0" y1="0" x2="1" y2="0">
      <stop offset="0%" stop-color="#3A1A1A"/>
      <stop offset="100%" stop-color="#2A0D0D"/>
    </linearGradient>
    <linearGradient id="headerGrad" x1="0" y1="0" x2="0" y2="1">
      <stop offset="0%" stop-color="#1C1F2E"/>
      <stop offset="100%" stop-color="#0D0F14"/>
    </linearGradient>
    <linearGradient id="skillBar" x1="0" y1="0" x2="1" y2="0">
      <stop offset="0%" stop-color="#4A9EFF"/>
      <stop offset="100%" stop-color="#1A5EC0"/>
    </linearGradient>
    <linearGradient id="moraleBar" x1="0" y1="0" x2="1" y2="0">
      <stop offset="0%" stop-color="#52C864"/>
      <stop offset="100%" stop-color="#268034"/>
    </linearGradient>
    <linearGradient id="reliabBar" x1="0" y1="0" x2="1" y2="0">
      <stop offset="0%" stop-color="#FFB84A"/>
      <stop offset="100%" stop-color="#C07020"/>
    </linearGradient>
    <linearGradient id="cardActive" x1="0" y1="0" x2="0" y2="1">
      <stop offset="0%" stop-color="#2A2D3E"/>
      <stop offset="100%" stop-color="#1A1D2A"/>
    </linearGradient>
    <linearGradient id="cardHover" x1="0" y1="0" x2="0" y2="1">
      <stop offset="0%" stop-color="#2E3248"/>
      <stop offset="100%" stop-color="#1E2135"/>
    </linearGradient>
    <filter id="glow">
      <feGaussianBlur stdDeviation="2" result="blur"/>
      <feComposite in="SourceGraphic" in2="blur" operator="over"/>
    </filter>
    <filter id="shadow">
      <feDropShadow dx="0" dy="2" stdDeviation="4" flood-color="#000000" flood-opacity="0.6"/>
    </filter>
  </defs>

  <!-- ═══════════════════════════════════════ -->
  <!-- TOP STATUS BAR                          -->
  <!-- ═══════════════════════════════════════ -->
  <rect width="390" height="52" fill="url(#headerGrad)"/>
  <rect y="52" width="390" height="1" fill="#C8860A" opacity="0.6"/>

  <!-- Tier badge -->
  <rect x="12" y="10" width="68" height="32" rx="4" fill="#1A0800" stroke="#8B4500" stroke-width="1"/>
  <text x="46" y="21" text-anchor="middle" fill="#C87020" font-size="8" font-weight="bold" letter-spacing="1">PALIER</text>
  <text x="46" y="35" text-anchor="middle" fill="#F0A030" font-size="13" font-weight="bold">NORMAL</text>

  <!-- Boss progress -->
  <text x="195" y="19" text-anchor="middle" fill="#8A8FA8" font-size="9" letter-spacing="2">BOSS</text>
  <text x="195" y="37" text-anchor="middle" fill="#E8D0A0" font-size="18" font-weight="bold" letter-spacing="3">2 / 5</text>

  <!-- Attempt counter (CRITICAL INFO) -->
  <rect x="310" y="10" width="68" height="32" rx="4" fill="#1A0000" stroke="#8B0000" stroke-width="1"/>
  <text x="344" y="21" text-anchor="middle" fill="#CC3030" font-size="8" font-weight="bold" letter-spacing="1">ESSAIS</text>
  <!-- 3 skulls filled, 2 empty -->
  <text x="327" y="37" fill="#CC3030" font-size="11">☠</text>
  <text x="337" y="37" fill="#CC3030" font-size="11">☠</text>
  <text x="347" y="37" fill="#CC3030" font-size="11">☠</text>
  <text x="357" y="37" fill="#3A2020" font-size="11">☠</text>
  <text x="367" y="37" fill="#3A2020" font-size="11">☠</text>

  <!-- ═══════════════════════════════════════ -->
  <!-- BOSS INFO PANEL                         -->
  <!-- ═══════════════════════════════════════ -->
  <rect x="12" y="62" width="366" height="88" rx="6" fill="#100A00" stroke="#5A3A00" stroke-width="1"/>
  <!-- Boss icon placeholder -->
  <rect x="20" y="70" width="64" height="72" rx="4" fill="#1A0F00" stroke="#6B4400" stroke-width="1"/>
  <!-- Boss skull icon -->
  <text x="52" y="117" text-anchor="middle" fill="#8B4500" font-size="40">💀</text>

  <!-- Boss name -->
  <text x="96" y="82" fill="#E8D0A0" font-size="15" font-weight="bold">Seigneur Kargoth</text>
  <text x="96" y="97" fill="#8A7050" font-size="10">le Mal-Schedulé</text>

  <!-- Boss HP bar -->
  <text x="96" y="115" fill="#6A6070" font-size="9" letter-spacing="1">DIFFICULTÉ</text>
  <rect x="96" y="120" width="200" height="8" rx="4" fill="#1A0000"/>
  <rect x="96" y="120" width="140" height="8" rx="4" fill="#C83030"/>
  <text x="302" y="130" fill="#CC5050" font-size="10" font-weight="bold">70%</text>

  <!-- Boss ability hint -->
  <rect x="96" y="134" width="180" height="16" rx="3" fill="#200A00" stroke="#4A2000" stroke-width="1"/>
  <text x="104" y="146" fill="#CC7030" font-size="9">⚠ Mécanique : Raid Wipe aléatoire</text>

  <!-- ═══════════════════════════════════════ -->
  <!-- SECTION TITLE: CHOIX TACTIQUE           -->
  <!-- ═══════════════════════════════════════ -->
  <text x="12" y="170" fill="#C8860A" font-size="11" font-weight="bold" letter-spacing="3">CHOIX TACTIQUE</text>
  <rect x="12" y="174" width="366" height="1" fill="#5A3A00"/>
  <text x="378" y="170" text-anchor="end" fill="#4A4A5A" font-size="10" font-style="italic">Un seul choix, irréversible</text>

  <!-- ═══════════════════════════════════════ -->
  <!-- TAB SELECTOR                            -->
  <!-- ═══════════════════════════════════════ -->
  <!-- Tab: Composition (ACTIVE) -->
  <rect x="12" y="180" width="118" height="30" rx="4" fill="#2A2000" stroke="#C8860A" stroke-width="1.5"/>
  <text x="71" y="200" text-anchor="middle" fill="#F0C060" font-size="11" font-weight="bold">⚔ Composition</text>

  <!-- Tab: Consommables -->
  <rect x="136" y="180" width="114" height="30" rx="4" fill="#141620" stroke="#3A3D56" stroke-width="1"/>
  <text x="193" y="200" text-anchor="middle" fill="#5A6080" font-size="11">🧪 Consomm.</text>

  <!-- Tab: Stratégie -->
  <rect x="256" y="180" width="122" height="30" rx="4" fill="#141620" stroke="#3A3D56" stroke-width="1"/>
  <text x="317" y="200" text-anchor="middle" fill="#5A6080" font-size="11">🗺 Stratégie</text>

  <!-- ═══════════════════════════════════════ -->
  <!-- COMPOSITION PANEL                       -->
  <!-- ═══════════════════════════════════════ -->
  <rect x="12" y="218" width="366" height="230" rx="6" fill="#12141C" stroke="#2A2D3E" stroke-width="1"/>

  <!-- Roster label -->
  <text x="24" y="236" fill="#6A6A80" font-size="9" letter-spacing="2">COMPOSITION ACTUELLE</text>

  <!-- Member row: Tank 1 -->
  <rect x="20" y="242" width="350" height="36" rx="4" fill="url(#tankGrad)" stroke="#1A4A7A" stroke-width="1"/>
  <rect x="20" y="242" width="3" height="36" rx="2" fill="#3A8AFF"/>
  <text x="32" y="255" fill="#8AB8FF" font-size="9" font-weight="bold">TANK</text>
  <text x="32" y="270" fill="#D0E8FF" font-size="12" font-weight="bold">Flamius</text>
  <text x="120" y="255" fill="#4A6A90" font-size="9">Paladin Protection</text>
  <!-- Mini stat bars -->
  <text x="200" y="255" fill="#4A6A90" font-size="8">SKL</text>
  <rect x="215" y="248" width="40" height="5" rx="2" fill="#1A2A3A"/>
  <rect x="215" y="248" width="32" height="5" rx="2" fill="#3A8AFF"/>
  <text x="262" y="255" fill="#4A6A90" font-size="8">MOR</text>
  <rect x="277" y="248" width="40" height="5" rx="2" fill="#1A2A3A"/>
  <rect x="277" y="248" width="24" height="5" rx="2" fill="#52C864"/>
  <!-- Trait pill -->
  <rect x="330" y="248" width="34" height="14" rx="7" fill="#1A2A1A" stroke="#2A4A2A" stroke-width="1"/>
  <text x="347" y="259" text-anchor="middle" fill="#52C864" font-size="8">Loyal</text>
  <!-- Morale value -->
  <text x="200" y="271" fill="#4A6A90" font-size="8">FIA</text>
  <rect x="215" y="264" width="40" height="5" rx="2" fill="#1A2A3A"/>
  <rect x="215" y="264" width="28" height="5" rx="2" fill="#FFB84A"/>
  <!-- Conflict indicator -->
  <rect x="262" y="261" width="38" height="14" rx="3" fill="#2A1A00" stroke="#6A3A00" stroke-width="1"/>
  <text x="281" y="272" text-anchor="middle" fill="#CC7030" font-size="8">⚡ Conf.1</text>

  <!-- Member row: Healer 1 -->
  <rect x="20" y="283" width="350" height="36" rx="4" fill="url(#healGrad)" stroke="#1A4A2A" stroke-width="1"/>
  <rect x="20" y="283" width="3" height="36" rx="2" fill="#52C864"/>
  <text x="32" y="296" fill="#8AFF8A" font-size="9" font-weight="bold">HEAL</text>
  <text x="32" y="311" fill="#C8FFD0" font-size="12" font-weight="bold">Kévin</text>
  <text x="120" y="296" fill="#3A6A4A" font-size="9">Prêtre Sacré</text>
  <text x="200" y="296" fill="#3A6A4A" font-size="8">SKL</text>
  <rect x="215" y="289" width="40" height="5" rx="2" fill="#1A2A1A"/>
  <rect x="215" y="289" width="22" height="5" rx="2" fill="#3A8AFF"/>
  <text x="262" y="296" fill="#3A6A4A" font-size="8">MOR</text>
  <rect x="277" y="289" width="40" height="5" rx="2" fill="#1A2A1A"/>
  <rect x="277" y="289" width="36" height="5" rx="2" fill="#52C864"/>
  <rect x="330" y="289" width="34" height="14" rx="7" fill="#2A1A2A" stroke="#4A2A4A" stroke-width="1"/>
  <text x="347" y="300" text-anchor="middle" fill="#CC88FF" font-size="7">Drama Q.</text>
  <text x="200" y="312" fill="#3A6A4A" font-size="8">FIA</text>
  <rect x="215" y="305" width="40" height="5" rx="2" fill="#1A2A1A"/>
  <rect x="215" y="305" width="38" height="5" rx="2" fill="#FFB84A"/>

  <!-- Member row: DPS 1 -->
  <rect x="20" y="324" width="350" height="36" rx="4" fill="url(#dpsGrad)" stroke="#4A1A1A" stroke-width="1"/>
  <rect x="20" y="324" width="3" height="36" rx="2" fill="#FF6040"/>
  <text x="32" y="337" fill="#FF9080" font-size="9" font-weight="bold">DPS</text>
  <text x="32" y="352" fill="#FFD0C8" font-size="12" font-weight="bold">Sardoche3000</text>
  <text x="120" y="337" fill="#6A3A3A" font-size="9">Mage Feu</text>
  <text x="200" y="337" fill="#6A3A3A" font-size="8">SKL</text>
  <rect x="215" y="330" width="40" height="5" rx="2" fill="#2A1A1A"/>
  <rect x="215" y="330" width="36" height="5" rx="2" fill="#3A8AFF"/>
  <text x="262" y="337" fill="#6A3A3A" font-size="8">MOR</text>
  <rect x="277" y="330" width="40" height="5" rx="2" fill="#2A1A1A"/>
  <rect x="277" y="330" width="14" height="5" rx="2" fill="#CC3030"/>
  <rect x="330" y="330" width="34" height="14" rx="7" fill="#2A1A00" stroke="#6A3A00" stroke-width="1"/>
  <text x="347" y="341" text-anchor="middle" fill="#FFB050" font-size="7">AFK fréq.</text>
  <text x="200" y="353" fill="#6A3A3A" font-size="8">FIA</text>
  <rect x="215" y="346" width="40" height="5" rx="2" fill="#2A1A1A"/>
  <rect x="215" y="346" width="10" height="5" rx="2" fill="#CC3030"/>
  <!-- Warning on low morale -->
  <rect x="262" y="343" width="38" height="14" rx="3" fill="#2A0000" stroke="#6A0000" stroke-width="1"/>
  <text x="281" y="354" text-anchor="middle" fill="#FF4040" font-size="8">⚠ Moral BAS</text>

  <!-- Member row: DPS 2 -->
  <rect x="20" y="365" width="350" height="36" rx="4" fill="url(#dpsGrad)" stroke="#4A1A1A" stroke-width="1"/>
  <rect x="20" y="365" width="3" height="36" rx="2" fill="#FF6040"/>
  <text x="32" y="378" fill="#FF9080" font-size="9" font-weight="bold">DPS</text>
  <text x="32" y="393" fill="#FFD0C8" font-size="12" font-weight="bold">Zerkitos</text>
  <text x="120" y="378" fill="#6A3A3A" font-size="9">Voleur Subtilité</text>
  <text x="200" y="378" fill="#6A3A3A" font-size="8">SKL</text>
  <rect x="215" y="371" width="40" height="5" rx="2" fill="#2A1A1A"/>
  <rect x="215" y="371" width="38" height="5" rx="2" fill="#3A8AFF"/>
  <text x="262" y="378" fill="#6A3A3A" font-size="8">MOR</text>
  <rect x="277" y="371" width="40" height="5" rx="2" fill="#2A1A1A"/>
  <rect x="277" y="371" width="30" height="5" rx="2" fill="#52C864"/>
  <rect x="330" y="371" width="34" height="14" rx="7" fill="#1A1A2A" stroke="#2A2A4A" stroke-width="1"/>
  <text x="347" y="382" text-anchor="middle" fill="#8888FF" font-size="7">Main Fr.</text>
  <text x="200" y="394" fill="#6A3A3A" font-size="8">FIA</text>
  <rect x="215" y="387" width="40" height="5" rx="2" fill="#2A1A1A"/>
  <rect x="215" y="387" width="34" height="5" rx="2" fill="#FFB84A"/>

  <!-- "+ 4 membres" expand hint -->
  <rect x="20" y="404" width="350" height="28" rx="4" fill="#0D0F18" stroke="#1E2136" stroke-width="1" stroke-dasharray="4 2"/>
  <text x="195" y="422" text-anchor="middle" fill="#3A3D56" font-size="10">+ 4 autres membres  ▼</text>

  <!-- ═══════════════════════════════════════ -->
  <!-- TACTICAL OPTIONS SECTION                -->
  <!-- ═══════════════════════════════════════ -->
  <text x="12" y="470" fill="#C8860A" font-size="11" font-weight="bold" letter-spacing="3">ASSIGNATION TACTIQUE</text>
  <rect x="12" y="474" width="366" height="1" fill="#5A3A00"/>

  <!-- Option A card — SELECTED -->
  <rect x="12" y="480" width="174" height="78" rx="6" fill="#1E2800" stroke="#52C864" stroke-width="2"/>
  <rect x="12" y="480" width="174" height="4" rx="2" fill="#52C864"/>
  <text x="99" y="497" text-anchor="middle" fill="#52C864" font-size="9" font-weight="bold" letter-spacing="1">TANK DÉFENSIF</text>
  <text x="99" y="513" text-anchor="middle" fill="#8AE098" font-size="10">Flamius en position</text>
  <text x="99" y="526" text-anchor="middle" fill="#8AE098" font-size="10">défensive (-ATK, +DEF)</text>
  <!-- Effects -->
  <rect x="20" y="532" width="60" height="16" rx="3" fill="#0A1A0A" stroke="#1A4A1A" stroke-width="1"/>
  <text x="50" y="543" text-anchor="middle" fill="#52C864" font-size="9">+15% survie</text>
  <rect x="86" y="532" width="60" height="16" rx="3" fill="#1A0A0A" stroke="#4A1A1A" stroke-width="1"/>
  <text x="116" y="543" text-anchor="middle" fill="#CC5050" font-size="9">-10% DPS</text>
  <!-- Selected checkmark -->
  <circle cx="172" cy="482" r="8" fill="#52C864"/>
  <text x="172" y="487" text-anchor="middle" fill="#000" font-size="10" font-weight="bold">✓</text>

  <!-- Option B card -->
  <rect x="204" y="480" width="174" height="78" rx="6" fill="#14161E" stroke="#3A3D56" stroke-width="1"/>
  <text x="291" y="497" text-anchor="middle" fill="#6A6A80" font-size="9" font-weight="bold" letter-spacing="1">TANK OFFENSIF</text>
  <text x="291" y="513" text-anchor="middle" fill="#5A5A70" font-size="10">Flamius en position</text>
  <text x="291" y="526" text-anchor="middle" fill="#5A5A70" font-size="10">agressive (+ATK, -DEF)</text>
  <rect x="212" y="532" width="60" height="16" rx="3" fill="#0A0A1A" stroke="#1A1A4A" stroke-width="1"/>
  <text x="242" y="543" text-anchor="middle" fill="#3A8AFF" font-size="9">+20% DPS</text>
  <rect x="278" y="532" width="60" height="16" rx="3" fill="#1A0A0A" stroke="#4A1A1A" stroke-width="1"/>
  <text x="308" y="543" text-anchor="middle" fill="#CC5050" font-size="9">-20% survie</text>

  <!-- ═══════════════════════════════════════ -->
  <!-- CONFLICT WARNING BANNER                 -->
  <!-- ═══════════════════════════════════════ -->
  <rect x="12" y="564" width="366" height="40" rx="5" fill="#1A0800" stroke="#8B4500" stroke-width="1"/>
  <text x="22" y="580" fill="#FF8C30" font-size="10" font-weight="bold">⚡ CONFLIT ACTIF — Flamius vs Sardoche3000</text>
  <text x="22" y="596" fill="#8B5030" font-size="9">Niveau 1 — Pénalité de coordination : -8% sur la tentative</text>

  <!-- ═══════════════════════════════════════ -->
  <!-- PREDICTION PANEL                        -->
  <!-- ═══════════════════════════════════════ -->
  <rect x="12" y="612" width="366" height="56" rx="6" fill="#0D0F18" stroke="#2A2D3E" stroke-width="1"/>
  <text x="22" y="628" fill="#6A6A80" font-size="9" letter-spacing="2">ESTIMATION SYSTÈME</text>
  <!-- Probability bar -->
  <text x="22" y="646" fill="#8A8AA0" font-size="10">Chances de succès :</text>
  <rect x="160" y="636" width="160" height="12" rx="6" fill="#1A1A28"/>
  <rect x="160" y="636" width="97" height="12" rx="6" fill="#3A8AFF"/>
  <rect x="160" y="636" width="97" height="12" rx="6" fill="url(#skillBar)" opacity="0.7"/>
  <text x="326" y="648" fill="#3A8AFF" font-size="11" font-weight="bold">61%</text>
  <text x="22" y="661" fill="#4A4A5A" font-size="8" font-style="italic">Basé sur les stats de guilde, conflits et difficulté boss</text>

  <!-- ═══════════════════════════════════════ -->
  <!-- CTA BUTTON                              -->
  <!-- ═══════════════════════════════════════ -->
  <rect x="12" y="678" width="366" height="52" rx="8" fill="#6B0000" stroke="#CC0000" stroke-width="2"/>
  <rect x="12" y="678" width="366" height="52" rx="8" fill="url(#goldGrad)" opacity="0.1"/>
  <!-- Inner highlight -->
  <rect x="14" y="680" width="362" height="2" rx="1" fill="#FF8080" opacity="0.3"/>
  <text x="195" y="708" text-anchor="middle" fill="#FFFFFF" font-size="15" font-weight="bold" letter-spacing="2">LANCER LA TENTATIVE</text>
  <text x="195" y="722" text-anchor="middle" fill="#CC8080" font-size="9">Ce choix est irréversible</text>

  <!-- ═══════════════════════════════════════ -->
  <!-- BOTTOM NAV                              -->
  <!-- ═══════════════════════════════════════ -->
  <rect y="744" width="390" height="100" fill="#080A0E"/>
  <rect y="744" width="390" height="1" fill="#1E2136"/>

  <!-- Nav items -->
  <g opacity="0.5">
    <text x="50" y="774" text-anchor="middle" fill="#6A6A80" font-size="18">⚔</text>
    <text x="50" y="790" text-anchor="middle" fill="#6A6A80" font-size="9">Raid</text>
  </g>
  <g>
    <text x="130" y="774" text-anchor="middle" fill="#F0C060" font-size="18">🗺</text>
    <text x="130" y="790" text-anchor="middle" fill="#F0C060" font-size="9">Tactique</text>
    <rect x="112" y="793" width="36" height="2" rx="1" fill="#F0C060"/>
  </g>
  <g opacity="0.5">
    <text x="210" y="774" text-anchor="middle" fill="#6A6A80" font-size="18">👥</text>
    <text x="210" y="790" text-anchor="middle" fill="#6A6A80" font-size="9">Membres</text>
  </g>
  <g opacity="0.5">
    <text x="290" y="774" text-anchor="middle" fill="#6A6A80" font-size="18">🏦</text>
    <text x="290" y="790" text-anchor="middle" fill="#6A6A80" font-size="9">Banque</text>
  </g>
  <g opacity="0.5">
    <text x="360" y="774" text-anchor="middle" fill="#6A6A80" font-size="18">📋</text>
    <text x="360" y="790" text-anchor="middle" fill="#6A6A80" font-size="9">Journal</text>
  </g>

  <!-- Screen title watermark -->
  <text x="195" y="836" text-anchor="middle" fill="#1E2030" font-size="8" letter-spacing="2">RAID MANAGER — CHOIX TACTIQUE</text>

</svg>
