<?xml version="1.0" encoding="UTF-8"?>
<svg width="390" height="844" viewBox="0 0 390 844" fill="none" xmlns="http://www.w3.org/2000/svg" font-family="'Georgia', 'Times New Roman', serif">

  <rect width="390" height="844" fill="#0A0C10"/>

  <defs>
    <linearGradient id="headerGrad" x1="0" y1="0" x2="0" y2="1">
      <stop offset="0%" stop-color="#141728"/>
      <stop offset="100%" stop-color="#0A0C10"/>
    </linearGradient>
    <linearGradient id="goldGrad" x1="0" y1="0" x2="0" y2="1">
      <stop offset="0%" stop-color="#F0C060"/>
      <stop offset="100%" stop-color="#C8860A"/>
    </linearGradient>
    <linearGradient id="parchGrad" x1="0" y1="0" x2="0" y2="1">
      <stop offset="0%" stop-color="#1E1A10"/>
      <stop offset="100%" stop-color="#141008"/>
    </linearGradient>
    <linearGradient id="roleGreen" x1="0" y1="0" x2="1" y2="0">
      <stop offset="0%" stop-color="#1A3A1A"/>
      <stop offset="100%" stop-color="#0A180A"/>
    </linearGradient>
    <linearGradient id="roleRed" x1="0" y1="0" x2="1" y2="0">
      <stop offset="0%" stop-color="#3A1A1A"/>
      <stop offset="100%" stop-color="#180A0A"/>
    </linearGradient>
  </defs>

  <!-- ═══════════════════════════════════════ -->
  <!-- TOP STATUS BAR                          -->
  <!-- ═══════════════════════════════════════ -->
  <rect width="390" height="52" fill="url(#headerGrad)"/>
  <rect y="52" width="390" height="1" fill="#C8860A" opacity="0.4"/>

  <!-- Back button -->
  <rect x="12" y="13" width="36" height="26" rx="4" fill="#141628" stroke="#2A2D3E" stroke-width="1"/>
  <text x="30" y="31" text-anchor="middle" fill="#8A8AA0" font-size="14">←</text>

  <!-- Title -->
  <text x="195" y="24" text-anchor="middle" fill="#C8860A" font-size="11" font-weight="bold" letter-spacing="3">DÉBRIEFING</text>
  <text x="195" y="40" text-anchor="middle" fill="#4A4A5A" font-size="9" letter-spacing="2">INTER-RAID — POST-MORTEM AUTOMATIQUE</text>

  <!-- Phase indicator -->
  <rect x="318" y="13" width="62" height="26" rx="4" fill="#1A0800" stroke="#5A3A00" stroke-width="1"/>
  <text x="349" y="22" text-anchor="middle" fill="#8A5020" font-size="7" letter-spacing="1">INTER-RAID</text>
  <text x="349" y="35" text-anchor="middle" fill="#F0A030" font-size="10" font-weight="bold">1 / 2</text>

  <!-- ═══════════════════════════════════════ -->
  <!-- PARCHMENT / LOG HEADER                  -->
  <!-- ═══════════════════════════════════════ -->
  <rect x="12" y="62" width="366" height="52" rx="6" fill="#1A1400" stroke="#5A4A00" stroke-width="1"/>
  <!-- Decorative corner elements -->
  <text x="20" y="88" fill="#4A3A00" font-size="20">✦</text>
  <text x="360" y="88" fill="#4A3A00" font-size="20">✦</text>
  <text x="195" y="80" text-anchor="middle" fill="#8A7040" font-size="10" letter-spacing="2">RAPPORT DE RAID — TENTATIVE 3</text>
  <text x="195" y="96" text-anchor="middle" fill="#C8A050" font-size="14" font-weight="bold">Seigneur Kargoth, le Mal-Schedulé</text>
  <text x="195" y="108" text-anchor="middle" fill="#5A4A20" font-size="9">Résultat : WIPE à 2m34s · Palier Normal · Boss 2/5</text>

  <!-- ═══════════════════════════════════════ -->
  <!-- ABSURD NARRATION BLOCK                  -->
  <!-- ═══════════════════════════════════════ -->
  <rect x="12" y="124" width="366" height="126" rx="6" fill="url(#parchGrad)" stroke="#3A3020" stroke-width="1"/>

  <!-- "AI typing" dots header -->
  <text x="24" y="140" fill="#5A5030" font-size="9" letter-spacing="1">ANALYSE AUTOMATIQUE ●●●</text>
  <rect x="24" y="145" width="254" height="1" fill="#3A2A10"/>

  <!-- Main narration text — comic post-mortem -->
  <text x="24" y="162" fill="#D4C090" font-size="11" font-style="italic">"Analyse du wipe : Sardoche3000 a marché dans</text>
  <text x="24" y="177" fill="#D4C090" font-size="11" font-style="italic">la même zone rouge 4 fois de suite. Il assure</text>
  <text x="24" y="192" fill="#D4C090" font-size="11" font-style="italic">que c'était intentionnel pour 'optimiser le</text>
  <text x="24" y="207" fill="#D4C090" font-size="11" font-style="italic">positionnement'. Le log de combat ne confirme</text>
  <text x="24" y="222" fill="#D4C090" font-size="11" font-style="italic">pas cette thèse. Kévin a tout vu. Il ne dira rien.</text>
  <text x="24" y="237" fill="#D4C090" font-size="11" font-style="italic">Pour l'instant."</text>

  <!-- Quote attribution -->
  <text x="356" y="244" text-anchor="end" fill="#4A4030" font-size="9">— Système d'Analyse v2.4</text>

  <!-- ═══════════════════════════════════════ -->
  <!-- PERFORMANCE BREAKDOWN BY ROLE           -->
  <!-- ═══════════════════════════════════════ -->
  <text x="12" y="268" fill="#C8860A" font-size="11" font-weight="bold" letter-spacing="3">ANALYSE PAR RÔLE</text>
  <rect x="12" y="272" width="366" height="1" fill="#5A3A00"/>

  <!-- Role rows -->
  <!-- Tank -->
  <rect x="12" y="278" width="366" height="40" rx="4" fill="url(#roleGreen)" stroke="#1A4A1A" stroke-width="1"/>
  <rect x="12" y="278" width="3" height="40" rx="2" fill="#3A8AFF"/>
  <text x="24" y="293" fill="#8AB8FF" font-size="9" font-weight="bold">TANK</text>
  <text x="24" y="308" fill="#D0E8FF" font-size="11">Flamius</text>
  <!-- Performance bar -->
  <rect x="120" y="285" width="160" height="8" rx="4" fill="#0A1A0A"/>
  <rect x="120" y="285" width="128" height="8" rx="4" fill="#52C864"/>
  <text x="286" y="294" fill="#52C864" font-size="10" font-weight="bold">80%</text>
  <text x="120" y="310" fill="#3A6A3A" font-size="9" font-style="italic">"Solidement en place. Conflit avec Sardoche</text>
  <text x="120" y="310" fill="#3A6A3A" font-size="9" font-style="italic"> noté."</text>
  <!-- Status badge -->
  <rect x="328" y="282" width="44" height="16" rx="8" fill="#0A2A0A" stroke="#1A5A1A" stroke-width="1"/>
  <text x="350" y="294" text-anchor="middle" fill="#52C864" font-size="9">OK ✓</text>

  <!-- Healer -->
  <rect x="12" y="323" width="366" height="40" rx="4" fill="url(#roleGreen)" stroke="#1A4A1A" stroke-width="1"/>
  <rect x="12" y="323" width="3" height="40" rx="2" fill="#52C864"/>
  <text x="24" y="338" fill="#8AFF8A" font-size="9" font-weight="bold">HEAL</text>
  <text x="24" y="353" fill="#C8FFD0" font-size="11">Kévin</text>
  <rect x="120" y="330" width="160" height="8" rx="4" fill="#0A1A0A"/>
  <rect x="120" y="330" width="144" height="8" rx="4" fill="#52C864"/>
  <text x="286" y="339" fill="#52C864" font-size="10" font-weight="bold">90%</text>
  <text x="120" y="355" fill="#3A6A3A" font-size="9" font-style="italic">"Seul survivant. Témoin des événements."</text>
  <rect x="328" y="327" width="44" height="16" rx="8" fill="#0A2A0A" stroke="#1A5A1A" stroke-width="1"/>
  <text x="350" y="339" text-anchor="middle" fill="#52C864" font-size="9">OK ✓</text>

  <!-- DPS 1 — CULPRIT -->
  <rect x="12" y="368" width="366" height="48" rx="4" fill="url(#roleRed)" stroke="#6A1A1A" stroke-width="1.5"/>
  <rect x="12" y="368" width="3" height="48" rx="2" fill="#FF4040"/>
  <text x="24" y="383" fill="#FF8080" font-size="9" font-weight="bold">DPS</text>
  <text x="24" y="398" fill="#FFD0C8" font-size="11">Sardoche3000</text>
  <!-- Red bar (low performance) -->
  <rect x="120" y="375" width="160" height="8" rx="4" fill="#1A0A0A"/>
  <rect x="120" y="375" width="38" height="8" rx="4" fill="#CC3030"/>
  <text x="286" y="384" fill="#FF4040" font-size="10" font-weight="bold">24%</text>
  <text x="120" y="400" fill="#8A3A3A" font-size="9" font-style="italic">"Zone rouge x4. Semble convaincu de son</text>
  <text x="120" y="411" fill="#8A3A3A" font-size="9" font-style="italic">innocence. Moral -8. Conflit Flamius +1."</text>
  <!-- Status badge BAD -->
  <rect x="316" y="371" width="56" height="16" rx="8" fill="#2A0000" stroke="#6A0000" stroke-width="1"/>
  <text x="344" y="383" text-anchor="middle" fill="#FF4040" font-size="8">⚠ FAUTIF</text>

  <!-- DPS 2 -->
  <rect x="12" y="421" width="366" height="40" rx="4" fill="#12141C" stroke="#2A2D3E" stroke-width="1"/>
  <rect x="12" y="421" width="3" height="40" rx="2" fill="#FF6040" opacity="0.5"/>
  <text x="24" y="436" fill="#FF9080" font-size="9" font-weight="bold">DPS</text>
  <text x="24" y="451" fill="#FFD0C8" font-size="11">Zerkitos</text>
  <rect x="120" y="428" width="160" height="8" rx="4" fill="#1A1A28"/>
  <rect x="120" y="428" width="110" height="8" rx="4" fill="#8868AA"/>
  <text x="286" y="437" fill="#AA88CC" font-size="10" font-weight="bold">69%</text>
  <text x="120" y="453" fill="#5A5070" font-size="9" font-style="italic">"Performant. Mort en essayant de rezz Sardoche."</text>
  <rect x="328" y="425" width="44" height="16" rx="8" fill="#1A101A" stroke="#3A1A3A" stroke-width="1"/>
  <text x="350" y="437" text-anchor="middle" fill="#AA88CC" font-size="9">~OK</text>

  <!-- ═══════════════════════════════════════ -->
  <!-- RESOURCE IMPACT                         -->
  <!-- ═══════════════════════════════════════ -->
  <text x="12" y="480" fill="#C8860A" font-size="11" font-weight="bold" letter-spacing="3">IMPACT RESSOURCES</text>
  <rect x="12" y="484" width="366" height="1" fill="#5A3A00"/>

  <rect x="12" y="490" width="366" height="40" rx="5" fill="#12141C" stroke="#2A2D3E" stroke-width="1"/>
  <!-- Resource chips -->
  <rect x="22" y="499" width="78" height="20" rx="10" fill="#1A0A00" stroke="#5A2A00" stroke-width="1"/>
  <text x="61" y="513" text-anchor="middle" fill="#CC7030" font-size="9">🧪 Potions -3</text>

  <rect x="108" y="499" width="78" height="20" rx="10" fill="#0A1A0A" stroke="#1A5A1A" stroke-width="1"/>
  <text x="147" y="513" text-anchor="middle" fill="#52C864" font-size="9">🍗 Repas -1</text>

  <rect x="194" y="499" width="92" height="20" rx="10" fill="#001A1A" stroke="#005A5A" stroke-width="1"/>
  <text x="240" y="513" text-anchor="middle" fill="#30C8C8" font-size="9">⚙ Exp. +45 tous</text>

  <rect x="294" y="499" width="78" height="20" rx="10" fill="#1A1A00" stroke="#5A5A00" stroke-width="1"/>
  <text x="333" y="513" text-anchor="middle" fill="#C8C830" font-size="9">💰 Or -120</text>

  <!-- ═══════════════════════════════════════ -->
  <!-- CONFLICT ESCALATION NOTICE              -->
  <!-- ═══════════════════════════════════════ -->
  <rect x="12" y="540" width="366" height="36" rx="5" fill="#1A0800" stroke="#8B4500" stroke-width="1"/>
  <text x="22" y="556" fill="#FF8030" font-size="10" font-weight="bold">⚡ ESCALADE DE CONFLIT</text>
  <text x="22" y="570" fill="#6A4020" font-size="9">Flamius vs Sardoche3000 : Niveau 1 → Niveau 2 · Pénalité x2</text>

  <!-- ═══════════════════════════════════════ -->
  <!-- MORALE CHANGES                          -->
  <!-- ═══════════════════════════════════════ -->
  <rect x="12" y="584" width="366" height="36" rx="5" fill="#12141C" stroke="#2A2D3E" stroke-width="1"/>
  <text x="22" y="599" fill="#6A6A80" font-size="9" letter-spacing="1">MORAL POST-WIPE</text>
  <!-- Mini delta indicators -->
  <text x="22" y="614" fill="#FF5050" font-size="9">Sardoche3000 −8</text>
  <text x="120" y="614" fill="#CC7030" font-size="9">Flamius −4</text>
  <text x="210" y="614" fill="#CC7030" font-size="9">Zerkitos −3</text>
  <text x="290" y="614" fill="#52C864" font-size="9">Kévin +2 👀</text>

  <!-- ═══════════════════════════════════════ -->
  <!-- CTA: PROCEED TO COUNCIL                 -->
  <!-- ═══════════════════════════════════════ -->
  <rect x="12" y="630" width="366" height="56" rx="8" fill="#1A0D00" stroke="#C8860A" stroke-width="2"/>
  <rect x="14" y="632" width="362" height="2" rx="1" fill="#F0C060" opacity="0.15"/>
  <text x="195" y="657" text-anchor="middle" fill="#F0C060" font-size="14" font-weight="bold" letter-spacing="1">SALLE DU CONSEIL →</text>
  <text x="195" y="675" text-anchor="middle" fill="#8A6030" font-size="9">3 événements à résoudre • Ordre au choix</text>

  <!-- ═══════════════════════════════════════ -->
  <!-- BOTTOM NAV                              -->
  <!-- ═══════════════════════════════════════ -->
  <rect y="744" width="390" height="100" fill="#080A0E"/>
  <rect y="744" width="390" height="1" fill="#1E2136"/>

  <g opacity="0.4">
    <text x="50" y="774" text-anchor="middle" fill="#6A6A80" font-size="18">⚔</text>
    <text x="50" y="790" text-anchor="middle" fill="#6A6A80" font-size="9">Raid</text>
  </g>
  <g opacity="0.4">
    <text x="130" y="774" text-anchor="middle" fill="#6A6A80" font-size="18">🗺</text>
    <text x="130" y="790" text-anchor="middle" fill="#6A6A80" font-size="9">Tactique</text>
  </g>
  <g opacity="0.4">
    <text x="210" y="774" text-anchor="middle" fill="#6A6A80" font-size="18">👥</text>
    <text x="210" y="790" text-anchor="middle" fill="#6A6A80" font-size="9">Membres</text>
  </g>
  <g opacity="0.4">
    <text x="290" y="774" text-anchor="middle" fill="#6A6A80" font-size="18">🏦</text>
    <text x="290" y="790" text-anchor="middle" fill="#6A6A80" font-size="9">Banque</text>
  </g>
  <g opacity="0.4">
    <text x="360" y="774" text-anchor="middle" fill="#6A6A80" font-size="18">📋</text>
    <text x="360" y="790" text-anchor="middle" fill="#6A6A80" font-size="9">Journal</text>
  </g>

  <text x="195" y="836" text-anchor="middle" fill="#1E2030" font-size="8" letter-spacing="2">RAID MANAGER — DÉBRIEFING</text>

</svg>
