<?xml version="1.0" encoding="UTF-8"?>
<svg width="390" height="844" viewBox="0 0 390 844" fill="none" xmlns="http://www.w3.org/2000/svg" font-family="'Georgia', 'Times New Roman', serif">

  <rect width="390" height="844" fill="#090B12"/>

  <defs>
    <linearGradient id="headerGrad" x1="0" y1="0" x2="0" y2="1">
      <stop offset="0%" stop-color="#12152A"/>
      <stop offset="100%" stop-color="#090B12"/>
    </linearGradient>
    <linearGradient id="goldGrad" x1="0" y1="0" x2="0" y2="1">
      <stop offset="0%" stop-color="#F0C060"/>
      <stop offset="100%" stop-color="#C8860A"/>
    </linearGradient>
    <!-- Category colors -->
    <linearGradient id="catMember" x1="0" y1="0" x2="1" y2="0">
      <stop offset="0%" stop-color="#3A1A4A"/>
      <stop offset="100%" stop-color="#1E0D2A"/>
    </linearGradient>
    <linearGradient id="catResource" x1="0" y1="0" x2="1" y2="0">
      <stop offset="0%" stop-color="#3A3A00"/>
      <stop offset="100%" stop-color="#1E1E00"/>
    </linearGradient>
    <linearGradient id="catExternal" x1="0" y1="0" x2="1" y2="0">
      <stop offset="0%" stop-color="#003A3A"/>
      <stop offset="100%" stop-color="#001E1E"/>
    </linearGradient>
    <linearGradient id="cardActive" x1="0" y1="0" x2="0" y2="1">
      <stop offset="0%" stop-color="#1E2230"/>
      <stop offset="100%" stop-color="#14172A"/>
    </linearGradient>
    <linearGradient id="choiceNorm" x1="0" y1="0" x2="0" y2="1">
      <stop offset="0%" stop-color="#1A1D2A"/>
      <stop offset="100%" stop-color="#12141E"/>
    </linearGradient>
    <filter id="cardGlow">
      <feGaussianBlur stdDeviation="2" result="blur"/>
      <feMerge>
        <feMergeNode in="blur"/>
        <feMergeNode in="SourceGraphic"/>
      </feMerge>
    </filter>
  </defs>

  <!-- ═══════════════════════════════════════ -->
  <!-- TOP BAR                                 -->
  <!-- ═══════════════════════════════════════ -->
  <rect width="390" height="52" fill="url(#headerGrad)"/>
  <rect y="52" width="390" height="1" fill="#C8860A" opacity="0.4"/>

  <!-- Back -->
  <rect x="12" y="13" width="36" height="26" rx="4" fill="#141628" stroke="#2A2D3E" stroke-width="1"/>
  <text x="30" y="31" text-anchor="middle" fill="#8A8AA0" font-size="14">←</text>

  <!-- Title -->
  <text x="195" y="24" text-anchor="middle" fill="#C8860A" font-size="11" font-weight="bold" letter-spacing="3">SALLE DU CONSEIL</text>
  <text x="195" y="40" text-anchor="middle" fill="#4A4A5A" font-size="9" letter-spacing="2">INTER-RAID — 3 ÉVÉNEMENTS À RÉSOUDRE</text>

  <!-- Phase indicator -->
  <rect x="318" y="13" width="62" height="26" rx="4" fill="#1A0800" stroke="#5A3A00" stroke-width="1"/>
  <text x="349" y="22" text-anchor="middle" fill="#8A5020" font-size="7" letter-spacing="1">INTER-RAID</text>
  <text x="349" y="35" text-anchor="middle" fill="#F0A030" font-size="10" font-weight="bold">2 / 2</text>

  <!-- ═══════════════════════════════════════ -->
  <!-- EVENT QUEUE — 3 CARDS AT TOP            -->
  <!-- ═══════════════════════════════════════ -->
  <text x="12" y="70" fill="#6A6A80" font-size="9" letter-spacing="2">ORDRE DE RÉSOLUTION (choisissez)</text>

  <!-- Event card 1 — MEMBER (ACTIVE/OPEN) -->
  <rect x="8" y="76" width="118" height="60" rx="6" fill="url(#catMember)" stroke="#8B30CC" stroke-width="2"/>
  <rect x="8" y="76" width="118" height="4" rx="2" fill="#8B30CC"/>
  <text x="14" y="91" fill="#8B30CC" font-size="8" font-weight="bold" letter-spacing="1">MEMBRE</text>
  <text x="14" y="104" fill="#D0A8E8" font-size="9" font-weight="bold">Flamius veut</text>
  <text x="14" y="116" fill="#D0A8E8" font-size="9" font-weight="bold">changer de rôle</text>
  <!-- ACTIVE indicator -->
  <rect x="8" y="128" width="118" height="8" rx="4" fill="#4A1A6A"/>
  <text x="67" y="136" text-anchor="middle" fill="#CC88FF" font-size="7" letter-spacing="1">EN COURS ▼</text>

  <!-- Event card 2 — RESOURCES (pending) -->
  <rect x="136" y="76" width="118" height="60" rx="6" fill="url(#catResource)" stroke="#5A5A00" stroke-width="1"/>
  <rect x="136" y="76" width="118" height="4" rx="2" fill="#8B8B00"/>
  <text x="142" y="91" fill="#8B8B00" font-size="8" font-weight="bold" letter-spacing="1">RESSOURCES</text>
  <text x="142" y="104" fill="#D0D088" font-size="9">Potions suspectes</text>
  <text x="142" y="116" fill="#D0D088" font-size="9">à -60%</text>
  <text x="195" y="136" text-anchor="middle" fill="#5A5A20" font-size="8">En attente</text>

  <!-- Event card 3 — CONFLICT (guaranteed, urgent) -->
  <rect x="264" y="76" width="118" height="60" rx="6" fill="#1A0808" stroke="#CC3030" stroke-width="1.5"/>
  <rect x="264" y="76" width="118" height="4" rx="2" fill="#CC3030"/>
  <text x="270" y="91" fill="#CC3030" font-size="8" font-weight="bold" letter-spacing="1">⚡ CONFLIT</text>
  <text x="270" y="104" fill="#E8B0B0" font-size="9">Sardoche exige</text>
  <text x="270" y="116" fill="#E8B0B0" font-size="9">des excuses</text>
  <!-- Urgent badge -->
  <rect x="264" y="124" width="118" height="12" rx="4" fill="#2A0000"/>
  <text x="323" y="133" text-anchor="middle" fill="#FF5050" font-size="7" letter-spacing="1">GARANTI · Conflit Niv.2</text>

  <!-- ═══════════════════════════════════════ -->
  <!-- ACTIVE EVENT CARD — FULL DETAIL         -->
  <!-- ═══════════════════════════════════════ -->
  <rect x="12" y="150" width="366" height="360" rx="8" fill="url(#cardActive)" stroke="#8B30CC" stroke-width="1.5"/>
  <!-- Top accent -->
  <rect x="12" y="150" width="366" height="5" rx="4" fill="#8B30CC"/>

  <!-- Category + icon row -->
  <rect x="22" y="165" width="80" height="20" rx="10" fill="#2A1040" stroke="#6A2090" stroke-width="1"/>
  <text x="62" y="179" text-anchor="middle" fill="#CC88FF" font-size="9" font-weight="bold">👤 MEMBRE</text>

  <!-- Event title -->
  <text x="22" y="204" fill="#E8D8F8" font-size="16" font-weight="bold">Flamius veut changer de rôle</text>

  <!-- Divider -->
  <rect x="22" y="210" width="346" height="1" fill="#3A1A5A"/>

  <!-- Event description -->
  <text x="22" y="228" fill="#B090D8" font-size="11">"Il était Tank. Il veut DPS maintenant. Il a</text>
  <text x="22" y="243" fill="#B090D8" font-size="11">regardé un tutoriel YouTube de 4 minutes.</text>
  <text x="22" y="258" fill="#B090D8" font-size="11">Il a l'air confiant. Trop confiant."</text>

  <!-- Context tooltips / indicators -->
  <rect x="22" y="268" width="346" height="26" rx="4" fill="#14101E" stroke="#2A1040" stroke-width="1"/>
  <text x="30" y="280" fill="#6A50A0" font-size="9">Flamius :</text>
  <text x="78" y="280" fill="#8A70C0" font-size="9">Tank · Skill 72 · Moral 58 · Conflit Niv.2 avec Sardoche</text>
  <text x="30" y="291" fill="#5A4080" font-size="8" font-style="italic">Trait : Loyal · Effet caché possible sur changement de rôle</text>

  <!-- Divider -->
  <rect x="22" y="300" width="346" height="1" fill="#2A1A3A"/>

  <!-- Choice A -->
  <rect x="22" y="308" width="346" height="54" rx="6" fill="#1E1828" stroke="#6A3A9A" stroke-width="1.5"/>
  <rect x="22" y="308" width="4" height="54" rx="2" fill="#8B30CC"/>
  <text x="34" y="324" fill="#D0A8E8" font-size="11" font-weight="bold">Accepter</text>
  <text x="34" y="338" fill="#8A70A8" font-size="10">Flamius passe en DPS. Moral +12, Skill initial réduit.</text>
  <!-- Visible effects row -->
  <rect x="34" y="344" width="60" height="14" rx="7" fill="#1A0A2A" stroke="#4A1A6A" stroke-width="1"/>
  <text x="64" y="354" text-anchor="middle" fill="#CC88FF" font-size="8">Moral +12</text>
  <rect x="102" y="344" width="64" height="14" rx="7" fill="#1A0A0A" stroke="#4A1A1A" stroke-width="1"/>
  <text x="134" y="354" text-anchor="middle" fill="#FF7070" font-size="8">Skill Tank -</text>
  <rect x="174" y="344" width="68" height="14" rx="7" fill="#0A0A1A" stroke="#2A2A4A" stroke-width="1"/>
  <text x="208" y="354" text-anchor="middle" fill="#6888FF" font-size="8">? effet caché</text>
  <!-- Selected indicator -->
  <circle cx="356" cy="330" r="10" fill="#1A0A28" stroke="#8B30CC" stroke-width="1.5"/>

  <!-- Choice B -->
  <rect x="22" y="368" width="346" height="54" rx="6" fill="#141620" stroke="#2A2D3E" stroke-width="1"/>
  <rect x="22" y="368" width="4" height="54" rx="2" fill="#3A3D56"/>
  <text x="34" y="384" fill="#A0A0C0" font-size="11" font-weight="bold">Refuser</text>
  <text x="34" y="398" fill="#5A5A70" font-size="10">Flamius reste Tank. Il est déçu. Moral -6, Fiabilité à risque.</text>
  <rect x="34" y="404" width="60" height="14" rx="7" fill="#1A0A0A" stroke="#4A1A1A" stroke-width="1"/>
  <text x="64" y="414" text-anchor="middle" fill="#FF7070" font-size="8">Moral -6</text>
  <rect x="102" y="404" width="80" height="14" rx="7" fill="#1A1400" stroke="#4A3A00" stroke-width="1"/>
  <text x="142" y="414" text-anchor="middle" fill="#CC8830" font-size="8">? Fiabilité risk</text>
  <circle cx="356" cy="390" r="10" fill="#0D0F18" stroke="#2A2D3E" stroke-width="1.5"/>

  <!-- Choice C -->
  <rect x="22" y="428" width="346" height="54" rx="6" fill="#141620" stroke="#2A2D3E" stroke-width="1"/>
  <rect x="22" y="428" width="4" height="54" rx="2" fill="#3A3D56"/>
  <text x="34" y="444" fill="#A0A0C0" font-size="11" font-weight="bold">Essai conditionnel</text>
  <text x="34" y="458" fill="#5A5A70" font-size="10">Test DPS sur le prochain boss. Si &lt;80% DPS cible, retour Tank.</text>
  <rect x="34" y="464" width="68" height="14" rx="7" fill="#001A1A" stroke="#005A5A" stroke-width="1"/>
  <text x="68" y="474" text-anchor="middle" fill="#30C8C8" font-size="8">Condition chain</text>
  <rect x="110" y="464" width="56" height="14" rx="7" fill="#0A1A0A" stroke="#1A5A1A" stroke-width="1"/>
  <text x="138" y="474" text-anchor="middle" fill="#52C864" font-size="8">Moral 0</text>
  <circle cx="356" cy="450" r="10" fill="#0D0F18" stroke="#2A2D3E" stroke-width="1.5"/>

  <!-- ═══════════════════════════════════════ -->
  <!-- TOOLTIP — HIDDEN EFFECTS HINT           -->
  <!-- ═══════════════════════════════════════ -->
  <rect x="12" y="522" width="366" height="28" rx="5" fill="#0A0A18" stroke="#2A2A3A" stroke-width="1"/>
  <text x="22" y="534" fill="#4A4A5A" font-size="9" font-style="italic">💡 Les effets cachés se révèlent avec l'expérience.</text>
  <text x="22" y="546" fill="#3A3A4A" font-size="9" font-style="italic">    Flamius + DPS + Sardoche = combinaison non-testée.</text>

  <!-- ═══════════════════════════════════════ -->
  <!-- ORDER REMINDER + DEPENDENCY WARNING     -->
  <!-- ═══════════════════════════════════════ -->
  <rect x="12" y="558" width="366" height="28" rx="5" fill="#1A0800" stroke="#5A3A00" stroke-width="1"/>
  <text x="22" y="571" fill="#CC7030" font-size="9" font-weight="bold">⚠ L'ordre de résolution peut modifier les options suivantes.</text>
  <text x="22" y="583" fill="#6A4020" font-size="9">Résoudre CONFLIT avant RESSOURCES peut changer les enjeux.</text>

  <!-- ═══════════════════════════════════════ -->
  <!-- CONFIRM BUTTON                          -->
  <!-- ═══════════════════════════════════════ -->
  <rect x="12" y="596" width="366" height="52" rx="8" fill="#2A1040" stroke="#8B30CC" stroke-width="2"/>
  <rect x="14" y="598" width="362" height="2" rx="1" fill="#CC88FF" opacity="0.15"/>
  <text x="195" y="626" text-anchor="middle" fill="#E0B8FF" font-size="14" font-weight="bold" letter-spacing="1">CONFIRMER LE CHOIX</text>
  <text x="195" y="641" text-anchor="middle" fill="#8A6AA0" font-size="9">Événements restants : 2 (Ressources · Conflit)</text>

  <!-- ═══════════════════════════════════════ -->
  <!-- BOTTOM NAV                              -->
  <!-- ═══════════════════════════════════════ -->
  <rect y="744" width="390" height="100" fill="#080A0E"/>
  <rect y="744" width="390" height="1" fill="#1E2136"/>

  <g opacity="0.4">
    <text x="50" y="774" text-anchor="middle" fill="#6A6A80" font-size="18">⚔</text>
    <text x="50" y="790" text-anchor="middle" fill="#6A6A80" font-size="9">Raid</text>
  </g>
  <g opacity="0.4">
    <text x="130" y="774" text-anchor="middle" fill="#6A6A80" font-size="18">🗺</text>
    <text x="130" y="790" text-anchor="middle" fill="#6A6A80" font-size="9">Tactique</text>
  </g>
  <g>
    <text x="210" y="774" text-anchor="middle" fill="#CC88FF" font-size="18">🏛</text>
    <text x="210" y="790" text-anchor="middle" fill="#CC88FF" font-size="9">Conseil</text>
    <rect x="192" y="793" width="36" height="2" rx="1" fill="#CC88FF"/>
  </g>
  <g opacity="0.4">
    <text x="290" y="774" text-anchor="middle" fill="#6A6A80" font-size="18">🏦</text>
    <text x="290" y="790" text-anchor="middle" fill="#6A6A80" font-size="9">Banque</text>
  </g>
  <g opacity="0.4">
    <text x="360" y="774" text-anchor="middle" fill="#6A6A80" font-size="18">📋</text>
    <text x="360" y="790" text-anchor="middle" fill="#6A6A80" font-size="9">Journal</text>
  </g>

  <text x="195" y="836" text-anchor="middle" fill="#1E2030" font-size="8" letter-spacing="2">RAID MANAGER — SALLE DU CONSEIL</text>

</svg>
